<svg id="Layer_1" data-name="Layer 1" xmlns="http://www.w3.org/2000/svg" viewBox="0 0 779.05 114.3"><defs><style>.cls-1{fill:#ed1e79;}.cls-2{fill:gray;}</style></defs><title>GIFWriter</title><path class="cls-1" d="M421.73,219.55c-1.65-6.3-7.35-9.15-13.35-9.15-7.5,0-15.45,4.5-16.5,12.15L386.78,259c-1,8.1,5.85,12.15,13.8,12.15s16.2-4,17.25-12.15l.6-4.5H401.48l3-21.9h42.75l-3.6,26.4c-3.45,24.45-25.8,36.75-47.1,36.75-21,0-40-12.3-36.6-36.75l5.1-36.45c3.45-24.75,25.95-36,46.95-36,13.8,0,28.8,5.7,33.75,22.65Z" transform="translate(-359.52 -181.75)"/><path class="cls-1" d="M477.83,294.25H451l14.85-106.2h26.85Z" transform="translate(-359.52 -181.75)"/><path class="cls-1" d="M530.33,232.6h40.95l-3.45,25H526.88l-5.1,36.6H494.63l14.85-106.2h73.95l-3.6,25.5H533Z" transform="translate(-359.52 -181.75)"/><path class="cls-2" d="M614.18,294.25l-7-104.7h16.95l3.3,60.3,1.35,24.9h1.35l10.5-61h18.3l10.5,61h1.35l1.35-24.9,3.3-60.3h16.35l-7,104.7H659.33L650,235h-1.2l-9.3,59.25Z" transform="translate(-359.52 -181.75)"/><path class="cls-2" d="M705.68,279.25h19.2v-47.4h-19.2v-15h38.4v21.3h1.2a41.79,41.79,0,0,1,2.92-7.93,25.23,25.23,0,0,1,4.8-6.8,22.45,22.45,0,0,1,7.13-4.76,25.26,25.26,0,0,1,10-1.81h8.4v18h-15.9q-8.7,0-13.65,5.12a18.06,18.06,0,0,0-5,13.09v26.19h26.85v15H705.68Z" transform="translate(-359.52 -181.75)"/><path class="cls-2" d="M799.12,279.25h25.5v-47.4h-25.5v-15h44.7v62.4h23.7v15h-68.4Zm35.1-74.4q-6.75,0-9.53-2.85a9.52,9.52,0,0,1-2.77-6.9v-3.6a9.52,9.52,0,0,1,2.77-6.9q2.77-2.85,9.53-2.85t9.53,2.85a9.53,9.53,0,0,1,2.77,6.9v3.6a9.53,9.53,0,0,1-2.77,6.9Q841,204.85,834.22,204.85Z" transform="translate(-359.52 -181.75)"/><path class="cls-2" d="M924.67,294.25q-11.1,0-16.35-5.86t-5.25-15.19V231.85h-22.5v-15h15.3q4.65,0,6.6-1.87t2-6.68V189.55h17.85v27.3h31.5v15h-31.5v47.4h31.5v15Z" transform="translate(-359.52 -181.75)"/><path class="cls-2" d="M1011.22,296a44.61,44.61,0,0,1-16.5-2.85,32.51,32.51,0,0,1-12.08-8.1,35.09,35.09,0,0,1-7.42-12.68,56.08,56.08,0,0,1,.08-33.67A36.47,36.47,0,0,1,982.72,226a32.48,32.48,0,0,1,11.63-8.1,42.74,42.74,0,0,1,30.53-.07,32,32,0,0,1,11.47,7.9,35.24,35.24,0,0,1,7.28,12.34,47.67,47.67,0,0,1,2.55,16v6.32h-54.3v1.95q0,8.4,5.25,13.58t14.7,5.17a24.76,24.76,0,0,0,12.38-2.92,26.64,26.64,0,0,0,8.63-7.72l10.95,10.89a34,34,0,0,1-12.22,10.44Q1023.52,296,1011.22,296Zm-1.35-66.9q-8.1,0-13.05,5.14t-4.95,13.6v1.06H1027v-1.36q0-8.47-4.58-13.45T1009.87,229.15Z" transform="translate(-359.52 -181.75)"/><path class="cls-2" d="M1065.67,279.25h19.2v-47.4h-19.2v-15h38.4v21.3h1.2a41.83,41.83,0,0,1,2.93-7.93,25.22,25.22,0,0,1,4.8-6.8,22.45,22.45,0,0,1,7.13-4.76,25.25,25.25,0,0,1,10-1.81h8.4v18h-15.9q-8.7,0-13.65,5.12a18.06,18.06,0,0,0-4.95,13.09v26.19h26.85v15h-65.25Z" transform="translate(-359.52 -181.75)"/></svg>